<?xml version="1.0" standalone="no"?>
<!DOCTYPE svg PUBLIC "-//W3C//DTD SVG 20010904//EN"
 "http://www.w3.org/TR/2001/REC-SVG-20010904/DTD/svg10.dtd">
<svg version="1.0" xmlns="http://www.w3.org/2000/svg"
 width="1264.000000pt" height="1280.000000pt" viewBox="0 0 1264.000000 1280.000000"
 preserveAspectRatio="xMidYMid meet">
<metadata>
Created by potrace 1.15, written by Peter Selinger 2001-2017
</metadata>
<g transform="translate(0.000000,1280.000000) scale(0.100000,-0.100000)"
fill="#000000" stroke="none">
<path d="M7057 12760 c-24 -63 -80 -139 -183 -250 -159 -172 -221 -268 -269
-420 -23 -70 -28 -110 -33 -224 -3 -90 0 -164 8 -210 30 -167 109 -350 225
-520 40 -59 65 -106 65 -123 0 -14 14 -48 31 -74 18 -28 30 -61 30 -81 1 -18
16 -71 36 -116 82 -198 108 -409 99 -806 -9 -396 -19 -552 -41 -603 -9 -24
-19 -43 -21 -43 -3 0 -19 17 -37 37 -18 21 -141 150 -274 288 -265 275 -318
335 -328 374 -4 14 -31 80 -60 146 -107 243 -99 336 53 562 60 89 107 173 97
173 -3 0 -27 -11 -53 -24 -66 -33 -156 -103 -230 -178 l-63 -64 -30 -140 c-17
-81 -32 -187 -36 -254 -5 -110 -5 -118 20 -166 49 -98 147 -231 316 -434 278
-331 352 -459 355 -606 1 -66 -1 -74 -36 -125 -25 -35 -38 -66 -38 -86 0 -28
-6 -35 -48 -58 -44 -24 -48 -29 -44 -58 3 -30 -5 -40 -128 -152 -73 -66 -156
-138 -186 -160 -39 -29 -61 -56 -84 -102 -20 -40 -43 -69 -64 -82 -26 -17 -36
-32 -49 -80 -9 -33 -37 -99 -62 -146 -34 -65 -45 -98 -45 -131 0 -33 -5 -46
-17 -51 -38 -15 -181 187 -363 512 -62 110 -138 235 -169 277 -174 239 -215
317 -248 476 -43 208 28 441 160 532 80 54 74 103 -15 125 -20 5 -27 3 -32
-12 -3 -10 -47 -43 -96 -72 -74 -43 -101 -66 -149 -125 -83 -105 -98 -132
-117 -216 -9 -41 -23 -87 -30 -102 l-14 -28 -76 56 c-42 31 -110 77 -152 103
-80 50 -505 273 -675 355 -80 38 -103 55 -132 94 -64 86 -82 204 -49 327 22
86 92 241 123 273 14 15 82 70 149 122 68 52 151 117 185 143 67 52 281 188
362 230 28 15 121 61 208 102 131 63 167 86 215 133 82 81 100 156 67 270 -16
54 -72 129 -85 115 -4 -4 -15 -52 -24 -107 -9 -54 -23 -110 -31 -125 -33 -64
-61 -79 -559 -302 -213 -96 -314 -150 -386 -208 -71 -57 -367 -350 -420 -416
-61 -77 -99 -152 -107 -213 -6 -49 -28 -102 -42 -102 -4 0 -71 64 -147 143
-159 162 -183 200 -239 382 -116 374 -113 470 24 895 87 270 95 310 94 445 0
168 -56 340 -138 431 -41 44 -40 48 -12 -81 54 -242 27 -393 -137 -762 -45
-104 -88 -205 -95 -225 -11 -34 -15 -37 -39 -32 -61 14 -154 67 -278 157 -187
137 -218 177 -248 320 -18 91 -37 135 -70 166 l-24 22 -7 -68 c-10 -97 -8
-226 6 -275 30 -115 93 -189 284 -339 238 -186 260 -217 290 -414 18 -116 36
-170 116 -352 33 -73 70 -169 83 -214 13 -45 30 -86 39 -91 9 -4 58 -61 110
-126 113 -140 159 -184 251 -237 51 -29 86 -61 134 -118 36 -43 90 -95 121
-116 112 -76 460 -260 540 -286 34 -11 72 -35 105 -64 28 -26 74 -55 101 -65
73 -28 177 -93 253 -158 109 -92 333 -345 421 -477 44 -64 106 -190 98 -197
-2 -3 -15 0 -29 5 -14 5 -74 17 -134 27 -138 23 -548 25 -1039 5 -522 -21
-719 -2 -1080 106 -104 31 -183 62 -260 103 -60 31 -141 68 -180 80 -38 13
-90 33 -115 45 -103 52 -193 161 -238 289 -22 62 -26 88 -26 208 l-1 136 41
59 c58 82 71 110 84 182 6 34 26 97 45 139 52 121 60 155 46 202 -13 44 -65
110 -87 110 -24 0 -36 -41 -35 -116 2 -96 -12 -128 -100 -225 -57 -63 -74 -89
-85 -133 -8 -30 -37 -93 -65 -141 -54 -92 -89 -178 -89 -220 0 -35 -11 -31
-58 19 -54 59 -84 121 -143 293 -56 164 -66 185 -159 337 -37 61 -76 136 -85
166 -14 43 -32 69 -80 116 -117 115 -258 159 -334 105 -35 -25 -40 -41 -13
-41 39 0 141 -61 180 -108 85 -101 125 -193 217 -497 73 -242 100 -308 154
-380 52 -69 71 -108 71 -147 0 -28 14 -50 78 -123 274 -313 575 -509 915 -596
51 -13 92 -29 107 -44 14 -13 56 -35 93 -48 38 -14 79 -34 91 -46 16 -15 41
-22 96 -27 82 -7 164 -36 158 -56 -3 -7 -157 -82 -344 -168 -186 -86 -456
-213 -598 -283 -142 -70 -267 -127 -276 -127 -9 0 -97 -20 -196 -44 -98 -24
-214 -50 -257 -56 -119 -19 -266 -8 -437 34 -80 20 -157 36 -171 36 -16 0 -58
23 -105 57 -266 191 -460 297 -545 298 -25 0 -53 -6 -63 -14 -15 -13 -15 -15
1 -34 10 -10 56 -39 103 -62 82 -41 135 -81 335 -250 151 -128 274 -192 440
-226 123 -26 332 -34 485 -20 105 10 408 57 502 77 l27 5 -33 -55 c-19 -31
-62 -120 -96 -199 -83 -189 -115 -251 -163 -320 -50 -71 -174 -167 -300 -232
-86 -44 -91 -45 -181 -45 -71 0 -97 -4 -106 -15 -11 -13 -4 -19 45 -42 50 -22
72 -26 154 -26 88 0 103 3 179 36 311 134 418 237 582 566 100 202 167 304
254 393 138 140 247 200 702 381 298 120 527 192 694 221 232 40 710 59 930
36 219 -23 409 -80 485 -147 35 -30 207 -231 264 -306 134 -180 221 -384 246
-574 5 -35 0 -95 -14 -180 -11 -71 -36 -243 -56 -384 -40 -286 -66 -408 -95
-449 -27 -38 -40 -113 -40 -227 0 -108 -15 -264 -70 -703 -106 -856 -114
-1166 -50 -1760 18 -162 40 -249 110 -441 91 -245 104 -317 97 -529 -3 -91 -9
-177 -14 -192 -12 -39 -196 -241 -271 -297 -56 -42 -88 -56 -255 -109 -241
-77 -288 -89 -412 -102 -324 -36 -601 -118 -854 -252 -166 -87 -230 -136 -446
-332 -71 -65 -161 -142 -200 -171 -119 -90 -275 -157 -402 -171 -29 -4 -56
-11 -59 -15 -3 -5 -18 -2 -34 6 -16 8 -31 11 -35 6 -9 -15 21 -38 82 -62 52
-20 75 -23 208 -22 121 0 165 4 230 22 143 38 342 169 560 366 237 215 331
269 491 283 46 5 87 6 89 3 3 -2 5 -125 5 -272 0 -203 -3 -270 -12 -276 -7 -4
-31 -15 -53 -23 -51 -20 -51 -41 0 -59 54 -19 104 -8 156 32 62 47 85 97 81
180 -2 62 1 73 40 149 36 69 43 91 43 139 0 102 45 130 335 209 240 66 391
115 626 205 255 98 307 125 368 193 78 86 133 140 156 152 19 10 20 8 20 -64
0 -41 -9 -152 -21 -248 -30 -251 -18 -378 52 -527 52 -113 117 -191 349 -421
231 -229 299 -309 352 -414 28 -55 29 -60 17 -107 -17 -65 -4 -80 45 -56 42
20 66 62 73 131 16 160 -73 328 -293 552 l-99 100 116 -4 c97 -3 139 1 265 24
119 23 177 29 287 29 l139 0 29 -32 c31 -35 56 -42 65 -18 10 26 -16 81 -64
135 l-48 53 -104 5 c-76 3 -143 -2 -242 -17 -75 -12 -171 -21 -213 -21 -74 0
-78 1 -176 58 -59 33 -112 71 -128 91 -24 32 -26 42 -26 130 1 90 4 107 59
271 36 107 61 199 64 237 3 40 9 63 17 63 7 0 47 -30 89 -67 43 -38 105 -90
139 -116 85 -66 340 -189 597 -287 118 -46 267 -107 330 -137 92 -43 131 -56
193 -63 168 -20 286 -47 452 -107 104 -37 482 -204 523 -231 13 -8 51 -56 84
-106 66 -99 115 -156 134 -156 16 0 34 53 34 100 0 21 4 61 10 89 8 45 7 58
-9 89 -24 45 -72 92 -171 164 -41 31 -94 71 -117 90 -24 21 -57 38 -80 41 -21
4 -84 34 -141 67 -74 43 -134 69 -210 91 -103 29 -182 68 -182 89 0 6 25 10
55 10 76 0 183 23 355 77 361 113 427 124 631 100 184 -22 173 -23 164 10 -23
94 -157 143 -395 143 -144 0 -244 -13 -453 -60 -265 -58 -374 -74 -522 -74
-129 1 -148 3 -239 32 -54 18 -114 32 -133 32 -22 0 -70 17 -123 44 -60 30
-107 46 -148 51 -60 7 -64 9 -150 91 -203 190 -381 438 -620 860 -230 406
-357 799 -398 1234 -20 203 -14 679 10 900 109 982 261 1671 498 2252 20 50
39 81 55 89 13 7 37 35 54 63 46 75 65 93 168 154 52 30 111 70 131 88 20 18
78 49 135 72 341 136 617 180 1003 162 316 -15 438 -32 516 -72 90 -46 356
-237 439 -315 48 -46 92 -83 97 -83 15 0 59 -83 104 -197 23 -60 49 -120 57
-135 24 -46 251 -250 356 -320 69 -47 116 -71 152 -79 77 -16 227 -8 275 15
42 21 76 67 76 104 0 21 -3 22 -37 16 -21 -4 -48 -11 -61 -15 -49 -19 -113
-10 -171 23 -253 142 -378 292 -389 466 -4 69 -3 75 13 68 46 -17 178 -47 279
-63 84 -14 168 -18 351 -17 297 1 463 23 655 87 119 40 130 42 245 42 153 -1
216 -17 363 -97 111 -60 113 -62 167 -145 68 -102 98 -123 180 -123 33 0 66 4
73 9 21 13 -4 54 -53 91 -32 24 -57 57 -92 124 -71 134 -91 151 -285 236 -93
40 -168 76 -168 79 0 4 17 25 39 47 41 43 81 60 401 170 257 88 522 129 705
109 66 -7 72 -10 119 -56 54 -53 61 -57 70 -33 27 71 -32 153 -145 203 -93 41
-183 54 -339 48 -168 -7 -310 -34 -536 -101 -82 -25 -183 -52 -223 -62 -95
-21 -125 -34 -241 -102 -155 -91 -207 -111 -322 -123 -65 -6 -122 -19 -159
-35 -98 -41 -246 -58 -499 -59 -257 0 -276 3 -542 100 -183 67 -307 130 -378
193 -42 37 -65 50 -98 55 -30 4 -70 23 -131 65 -104 70 -150 89 -371 148 -203
55 -320 93 -320 104 0 5 9 11 20 15 48 15 161 113 375 325 224 220 294 279
402 334 146 73 269 98 583 116 145 9 181 14 220 32 37 19 69 23 190 28 136 6
148 5 195 -16 75 -34 172 -47 309 -42 l122 5 64 49 c74 55 87 70 96 102 9 31
0 37 -28 19 -59 -37 -131 -52 -248 -51 -129 1 -197 20 -260 72 l-34 29 39 13
c142 46 297 151 458 312 114 113 123 120 180 133 33 8 65 19 70 24 15 15 -17
48 -60 62 -88 29 -204 -22 -338 -150 -60 -57 -119 -103 -171 -131 -43 -24
-114 -67 -156 -97 -198 -138 -395 -183 -970 -221 -142 -10 -258 -14 -258 -11
0 14 93 278 127 359 48 118 113 237 195 356 77 112 114 140 223 169 85 22 261
19 446 -7 l155 -22 47 33 c47 32 67 57 67 85 0 12 -6 13 -37 4 -49 -13 -127
-4 -265 33 -159 42 -259 56 -337 47 -36 -4 -67 -6 -69 -3 -2 2 27 35 65 72 99
100 322 233 473 282 147 49 442 81 735 81 71 0 202 5 290 10 l160 10 33 35
c19 21 32 45 32 61 0 23 -3 25 -27 20 -170 -35 -272 -34 -388 2 -87 26 -98 27
-315 27 -211 0 -233 -2 -344 -28 -320 -75 -570 -189 -772 -351 -137 -110 -196
-183 -324 -396 -34 -58 -97 -152 -140 -210 -100 -136 -148 -221 -265 -470
-154 -328 -225 -446 -338 -561 -41 -42 -73 -63 -123 -83 -93 -37 -119 -54
-227 -148 -143 -125 -229 -159 -627 -249 -191 -42 -345 -89 -446 -135 -33 -14
-98 -34 -145 -44 -92 -19 -116 -30 -255 -112 -50 -30 -110 -60 -133 -68 -31
-10 -51 -26 -72 -57 -25 -36 -72 -73 -94 -73 -9 0 -6 55 6 112 26 121 92 215
330 464 79 82 167 184 195 225 59 84 135 232 189 364 20 50 54 119 76 155 45
76 70 145 105 285 67 271 95 581 75 817 -23 267 -24 337 -7 411 53 227 207
441 378 527 102 51 164 59 287 34 l94 -18 66 23 c78 27 140 70 165 113 l19 31
-24 -6 c-69 -17 -156 -17 -294 -2 -82 9 -152 19 -155 22 -8 8 76 77 148 120
117 69 273 130 467 180 69 18 70 18 137 -5 78 -26 170 -38 221 -28 34 6 35 8
26 35 -14 41 -77 98 -129 117 -61 22 -243 30 -334 14 -96 -17 -203 -55 -376
-132 -80 -36 -156 -69 -170 -73 -14 -4 -55 -35 -91 -69 -36 -34 -120 -102
-187 -150 -104 -74 -130 -98 -168 -156 -25 -38 -71 -93 -103 -122 -45 -42 -59
-62 -64 -92 -7 -42 -41 -86 -67 -86 -11 0 -22 18 -34 58 -31 97 -80 190 -196
367 -180 277 -240 412 -240 542 0 38 -6 76 -15 94 -9 16 -13 34 -10 38 3 5 21
89 40 188 20 98 43 203 52 233 31 109 80 184 149 227 24 15 44 35 44 44 0 9
18 43 40 75 40 60 48 90 30 123 -18 35 -37 31 -53 -9z"/>
</g>
</svg>
